<svg width="186" height="30" viewBox="0 0 186 30" fill="none" xmlns="http://www.w3.org/2000/svg">
<path d="M0.76001 29V1.00001H5.04001L17.28 21.44H15.04L27.08 1.00001H31.36L31.4 29H26.48L26.44 8.72001H27.48L17.24 25.8H14.92L4.52001 8.72001H5.72001V29H0.76001Z" fill="white"/>
<path d="M43.6031 22.4L43.3231 16.24L58.0031 1.00001H63.8431L51.6431 13.96L48.7631 17.12L43.6031 22.4ZM38.9631 29V1.00001H44.1631V29H38.9631ZM58.4831 29L47.7631 16.24L51.2031 12.44L64.5631 29H58.4831Z" fill="white"/>
<path d="M76.1978 29.4C74.0112 29.4 71.9178 29.0933 69.9178 28.48C67.9178 27.84 66.3312 27.0267 65.1578 26.04L66.9578 22C68.0778 22.88 69.4645 23.6133 71.1178 24.2C72.7712 24.7867 74.4645 25.08 76.1978 25.08C77.6645 25.08 78.8512 24.92 79.7578 24.6C80.6645 24.28 81.3312 23.8533 81.7578 23.32C82.1845 22.76 82.3978 22.1333 82.3978 21.44C82.3978 20.5867 82.0912 19.9067 81.4778 19.4C80.8645 18.8667 80.0645 18.4533 79.0778 18.16C78.1178 17.84 77.0378 17.5467 75.8378 17.28C74.6645 17.0133 73.4778 16.7067 72.2778 16.36C71.1045 15.9867 70.0245 15.52 69.0378 14.96C68.0778 14.3733 67.2912 13.6 66.6778 12.64C66.0645 11.68 65.7578 10.4533 65.7578 8.96001C65.7578 7.44001 66.1578 6.05334 66.9578 4.80001C67.7845 3.52001 69.0245 2.50667 70.6778 1.76001C72.3578 0.986673 74.4778 0.600006 77.0378 0.600006C78.7178 0.600006 80.3845 0.81334 82.0378 1.24001C83.6912 1.66667 85.1312 2.28001 86.3578 3.08001L84.7178 7.12001C83.4645 6.37334 82.1712 5.82667 80.8378 5.48001C79.5045 5.10667 78.2245 4.92001 76.9978 4.92001C75.5578 4.92001 74.3845 5.09334 73.4778 5.44001C72.5978 5.78667 71.9445 6.24001 71.5178 6.80001C71.1178 7.36001 70.9178 8.00001 70.9178 8.72001C70.9178 9.57334 71.2112 10.2667 71.7978 10.8C72.4112 11.3067 73.1978 11.7067 74.1578 12C75.1445 12.2933 76.2378 12.5867 77.4378 12.88C78.6378 13.1467 79.8245 13.4533 80.9978 13.8C82.1978 14.1467 83.2778 14.6 84.2378 15.16C85.2245 15.72 86.0112 16.48 86.5978 17.44C87.2112 18.4 87.5178 19.6133 87.5178 21.08C87.5178 22.5733 87.1045 23.96 86.2778 25.24C85.4778 26.4933 84.2378 27.5067 82.5578 28.28C80.8778 29.0267 78.7578 29.4 76.1978 29.4Z" fill="white"/>
<path d="M103.12 28.3295C102.08 28.3295 101.093 28.1562 100.16 27.8095C99.24 27.4495 98.5267 26.9895 98.02 26.4295L98.48 25.6695C98.96 26.1628 99.6133 26.5828 100.44 26.9295C101.28 27.2628 102.167 27.4295 103.1 27.4295C104.033 27.4295 104.793 27.3095 105.38 27.0695C105.98 26.8162 106.42 26.4828 106.7 26.0695C106.993 25.6562 107.14 25.1962 107.14 24.6895C107.14 24.0895 106.98 23.6095 106.66 23.2495C106.34 22.8895 105.92 22.6028 105.4 22.3895C104.88 22.1762 104.313 21.9962 103.7 21.8495C103.087 21.7028 102.467 21.5495 101.84 21.3895C101.213 21.2162 100.64 20.9962 100.12 20.7295C99.6 20.4628 99.18 20.1028 98.86 19.6495C98.5533 19.1828 98.4 18.5828 98.4 17.8495C98.4 17.1828 98.5733 16.5695 98.92 16.0095C99.2667 15.4495 99.8067 14.9962 100.54 14.6495C101.273 14.3028 102.213 14.1295 103.36 14.1295C104.133 14.1295 104.893 14.2428 105.64 14.4695C106.4 14.6962 107.047 15.0028 107.58 15.3895L107.2 16.2095C106.613 15.8095 105.98 15.5162 105.3 15.3295C104.633 15.1295 103.987 15.0295 103.36 15.0295C102.467 15.0295 101.727 15.1562 101.14 15.4095C100.553 15.6628 100.12 16.0028 99.84 16.4295C99.56 16.8428 99.42 17.3095 99.42 17.8295C99.42 18.4295 99.5733 18.9095 99.88 19.2695C100.2 19.6295 100.62 19.9162 101.14 20.1295C101.66 20.3428 102.233 20.5228 102.86 20.6695C103.487 20.8162 104.107 20.9762 104.72 21.1495C105.333 21.3095 105.9 21.5228 106.42 21.7895C106.94 22.0562 107.36 22.4162 107.68 22.8695C108 23.3228 108.16 23.9095 108.16 24.6295C108.16 25.2828 107.98 25.8962 107.62 26.4695C107.26 27.0295 106.707 27.4828 105.96 27.8295C105.227 28.1628 104.28 28.3295 103.12 28.3295Z" fill="white"/>
<path d="M111.308 28.2295V17.7895H112.308V28.2295H111.308ZM111.808 15.2495C111.581 15.2495 111.388 15.1695 111.228 15.0095C111.068 14.8495 110.988 14.6628 110.988 14.4495C110.988 14.2228 111.068 14.0295 111.228 13.8695C111.388 13.7095 111.581 13.6295 111.808 13.6295C112.048 13.6295 112.241 13.7095 112.388 13.8695C112.548 14.0162 112.628 14.2028 112.628 14.4295C112.628 14.6562 112.548 14.8495 112.388 15.0095C112.241 15.1695 112.048 15.2495 111.808 15.2495Z" fill="white"/>
<path d="M119.162 28.3095C118.296 28.3095 117.482 28.1828 116.722 27.9295C115.976 27.6762 115.396 27.3562 114.982 26.9695L115.442 26.1695C115.842 26.5162 116.376 26.8162 117.042 27.0695C117.709 27.3095 118.429 27.4295 119.202 27.4295C120.296 27.4295 121.082 27.2495 121.562 26.8895C122.042 26.5295 122.282 26.0562 122.282 25.4695C122.282 25.0428 122.156 24.7095 121.902 24.4695C121.662 24.2162 121.336 24.0228 120.922 23.8895C120.509 23.7562 120.056 23.6495 119.562 23.5695C119.069 23.4762 118.576 23.3762 118.082 23.2695C117.589 23.1628 117.136 23.0095 116.722 22.8095C116.309 22.6095 115.976 22.3362 115.722 21.9895C115.482 21.6295 115.362 21.1562 115.362 20.5695C115.362 20.0362 115.509 19.5562 115.802 19.1295C116.096 18.7028 116.536 18.3628 117.122 18.1095C117.709 17.8428 118.442 17.7095 119.322 17.7095C119.976 17.7095 120.629 17.8028 121.282 17.9895C121.949 18.1762 122.489 18.4228 122.902 18.7295L122.442 19.5295C122.002 19.1962 121.509 18.9562 120.962 18.8095C120.416 18.6628 119.862 18.5895 119.302 18.5895C118.289 18.5895 117.542 18.7762 117.062 19.1495C116.596 19.5228 116.362 19.9895 116.362 20.5495C116.362 20.9895 116.482 21.3428 116.722 21.6095C116.976 21.8628 117.309 22.0628 117.722 22.2095C118.136 22.3428 118.589 22.4562 119.082 22.5495C119.576 22.6295 120.069 22.7228 120.562 22.8295C121.056 22.9362 121.509 23.0895 121.922 23.2895C122.336 23.4762 122.662 23.7428 122.902 24.0895C123.156 24.4228 123.282 24.8762 123.282 25.4495C123.282 26.0228 123.122 26.5228 122.802 26.9495C122.496 27.3762 122.036 27.7095 121.422 27.9495C120.809 28.1895 120.056 28.3095 119.162 28.3095Z" fill="white"/>
<path d="M129.113 28.3095C128.193 28.3095 127.486 28.0562 126.993 27.5495C126.513 27.0428 126.273 26.3495 126.273 25.4695V15.5095H127.273V25.3695C127.273 26.0362 127.44 26.5495 127.773 26.9095C128.106 27.2695 128.586 27.4495 129.213 27.4495C129.866 27.4495 130.406 27.2562 130.833 26.8695L131.253 27.5695C130.986 27.8228 130.66 28.0095 130.273 28.1295C129.9 28.2495 129.513 28.3095 129.113 28.3095ZM124.353 18.6495V17.7895H130.593V18.6495H124.353Z" fill="white"/>
<path d="M137.911 28.3095C136.857 28.3095 135.924 28.0828 135.111 27.6295C134.311 27.1762 133.677 26.5495 133.211 25.7495C132.757 24.9495 132.531 24.0362 132.531 23.0095C132.531 21.9695 132.744 21.0562 133.171 20.2695C133.611 19.4695 134.211 18.8428 134.971 18.3895C135.731 17.9362 136.584 17.7095 137.531 17.7095C138.477 17.7095 139.324 17.9295 140.071 18.3695C140.831 18.8095 141.424 19.4295 141.851 20.2295C142.291 21.0162 142.511 21.9295 142.511 22.9695C142.511 23.0095 142.504 23.0562 142.491 23.1095C142.491 23.1495 142.491 23.1962 142.491 23.2495H133.271V22.4695H141.951L141.551 22.8495C141.564 22.0362 141.391 21.3095 141.031 20.6695C140.684 20.0162 140.211 19.5095 139.611 19.1495C139.011 18.7762 138.317 18.5895 137.531 18.5895C136.757 18.5895 136.064 18.7762 135.451 19.1495C134.851 19.5095 134.377 20.0162 134.031 20.6695C133.684 21.3095 133.511 22.0428 133.511 22.8695V23.0495C133.511 23.9028 133.697 24.6628 134.071 25.3295C134.457 25.9828 134.984 26.4962 135.651 26.8695C136.317 27.2295 137.077 27.4095 137.931 27.4095C138.597 27.4095 139.217 27.2895 139.791 27.0495C140.377 26.8095 140.871 26.4428 141.271 25.9495L141.851 26.6095C141.397 27.1695 140.824 27.5962 140.131 27.8895C139.451 28.1695 138.711 28.3095 137.911 28.3095Z" fill="white"/>
<path d="M158.604 17.7095C159.444 17.7095 160.171 17.8762 160.784 18.2095C161.411 18.5295 161.898 19.0228 162.244 19.6895C162.591 20.3428 162.764 21.1562 162.764 22.1295V28.2295H161.764V22.2095C161.764 21.0362 161.478 20.1428 160.904 19.5295C160.331 18.9162 159.531 18.6095 158.504 18.6095C157.718 18.6095 157.038 18.7762 156.464 19.1095C155.891 19.4428 155.451 19.9095 155.144 20.5095C154.838 21.1095 154.684 21.8295 154.684 22.6695V28.2295H153.684V22.2095C153.684 21.0362 153.398 20.1428 152.824 19.5295C152.251 18.9162 151.451 18.6095 150.424 18.6095C149.638 18.6095 148.958 18.7762 148.384 19.1095C147.811 19.4428 147.371 19.9095 147.064 20.5095C146.758 21.1095 146.604 21.8295 146.604 22.6695V28.2295H145.604V17.7895H146.564V20.6695L146.424 20.3495C146.731 19.5362 147.244 18.8962 147.964 18.4295C148.684 17.9495 149.551 17.7095 150.564 17.7095C151.604 17.7095 152.478 17.9762 153.184 18.5095C153.904 19.0295 154.358 19.8095 154.544 20.8495L154.204 20.7095C154.484 19.8162 155.011 19.0962 155.784 18.5495C156.558 17.9895 157.498 17.7095 158.604 17.7095Z" fill="white"/>
<path d="M173.473 28.2295V25.8495L173.433 25.4895V21.5695C173.433 20.5962 173.167 19.8562 172.633 19.3495C172.113 18.8428 171.347 18.5895 170.333 18.5895C169.613 18.5895 168.94 18.7162 168.313 18.9695C167.7 19.2095 167.173 19.5228 166.733 19.9095L166.233 19.1895C166.753 18.7228 167.38 18.3628 168.113 18.1095C168.847 17.8428 169.613 17.7095 170.413 17.7095C171.707 17.7095 172.7 18.0362 173.393 18.6895C174.087 19.3428 174.433 20.3162 174.433 21.6095V28.2295H173.473ZM169.713 28.3095C168.94 28.3095 168.267 28.1895 167.693 27.9495C167.133 27.6962 166.7 27.3428 166.393 26.8895C166.1 26.4362 165.953 25.9162 165.953 25.3295C165.953 24.7962 166.073 24.3162 166.313 23.8895C166.567 23.4495 166.98 23.0962 167.553 22.8295C168.127 22.5495 168.893 22.4095 169.853 22.4095H173.693V23.1895H169.873C168.793 23.1895 168.033 23.3895 167.593 23.7895C167.167 24.1895 166.953 24.6895 166.953 25.2895C166.953 25.9562 167.207 26.4895 167.713 26.8895C168.22 27.2895 168.933 27.4895 169.853 27.4895C170.733 27.4895 171.473 27.2895 172.073 26.8895C172.687 26.4895 173.14 25.9095 173.433 25.1495L173.713 25.8295C173.433 26.5895 172.953 27.1962 172.273 27.6495C171.607 28.0895 170.753 28.3095 169.713 28.3095Z" fill="white"/>
<path d="M181.194 28.3095C180.327 28.3095 179.514 28.1828 178.754 27.9295C178.007 27.6762 177.427 27.3562 177.014 26.9695L177.474 26.1695C177.874 26.5162 178.407 26.8162 179.074 27.0695C179.74 27.3095 180.46 27.4295 181.234 27.4295C182.327 27.4295 183.114 27.2495 183.594 26.8895C184.074 26.5295 184.314 26.0562 184.314 25.4695C184.314 25.0428 184.187 24.7095 183.934 24.4695C183.694 24.2162 183.367 24.0228 182.954 23.8895C182.54 23.7562 182.087 23.6495 181.594 23.5695C181.1 23.4762 180.607 23.3762 180.114 23.2695C179.62 23.1628 179.167 23.0095 178.754 22.8095C178.34 22.6095 178.007 22.3362 177.754 21.9895C177.514 21.6295 177.394 21.1562 177.394 20.5695C177.394 20.0362 177.54 19.5562 177.834 19.1295C178.127 18.7028 178.567 18.3628 179.154 18.1095C179.74 17.8428 180.474 17.7095 181.354 17.7095C182.007 17.7095 182.66 17.8028 183.314 17.9895C183.98 18.1762 184.52 18.4228 184.934 18.7295L184.474 19.5295C184.034 19.1962 183.54 18.9562 182.994 18.8095C182.447 18.6628 181.894 18.5895 181.334 18.5895C180.32 18.5895 179.574 18.7762 179.094 19.1495C178.627 19.5228 178.394 19.9895 178.394 20.5495C178.394 20.9895 178.514 21.3428 178.754 21.6095C179.007 21.8628 179.34 22.0628 179.754 22.2095C180.167 22.3428 180.62 22.4562 181.114 22.5495C181.607 22.6295 182.1 22.7228 182.594 22.8295C183.087 22.9362 183.54 23.0895 183.954 23.2895C184.367 23.4762 184.694 23.7428 184.934 24.0895C185.187 24.4228 185.314 24.8762 185.314 25.4495C185.314 26.0228 185.154 26.5228 184.834 26.9495C184.527 27.3762 184.067 27.7095 183.454 27.9495C182.84 28.1895 182.087 28.3095 181.194 28.3095Z" fill="white"/>
</svg>
